<svg xmlns="http://www.w3.org/2000/svg" width="24" height="24" viewBox="0 0 2048 2048"><path fill="currentColor" d="M1408 1792q27 0 50 10t40 27t28 41t10 50q0 27-10 50t-27 40t-41 28t-50 10q-27 0-50-10t-40-27t-28-41t-10-50q0-27 10-50t27-40t41-28t50-10m-512 256q0-133 50-249t137-204t203-137t250-50v128q-106 0-199 40t-162 110t-110 163t-41 199zm-384 0q0-141 36-272t103-245t160-207t208-160t244-103t273-37v128q-124 0-238 32t-213 90t-182 141t-140 181t-91 214t-32 238zM2048 896h-256v1152h-128V896h-256V128h640zm-512-640v128h384V256zm384 512V512h-128v128h-128V512h-128v256zm-640 26q-149 31-282 93t-248 151t-205 201t-156 241t-98 272t-35 296H128q0-169 39-329t111-303t176-267t231-221t278-165t317-99z"/></svg>